<?xml version="1.0" encoding="utf-8"?>
<svg version="1.1" xmlns="http://www.w3.org/2000/svg" viewBox="0 0 512 512">
    <g>
        <circle fill="#333333" cx="256" cy="256" r="84"/>
        <path fill="#333333" d="M258.2,15.9C177.9,21.3,120,49,71.8,102.2l69.3,117.2c25.4-45.6,56.9-76.7,113.1-81.1
      c65.4-5.1,118.9,53.2,118.9,118.9S319.8,376,254.2,376c-64.9,0-117.7-52.1-118.9-116.7L56,123.1c-25.7,38.7-40.6,85.3-40.1,135.4
      c1.3,132,108,237.6,240.1,237.6c131.4,0,238.1-105.5,240.1-236.4C498,127,390.9,17.1,258.2,15.9z"/>
    </g>
</svg>
